<svg width="987" height="285" viewBox="0 0 987 285" fill="none" xmlns="http://www.w3.org/2000/svg">
<path d="M236.736 229.5C236.736 208.237 248.825 191 263.736 191C278.648 191 290.736 208.237 290.736 229.5C290.736 250.763 278.648 268 263.736 268C248.825 268 236.736 250.763 236.736 229.5Z" fill="white"/>
<path d="M331.736 236C331.736 218.327 342.705 204 356.236 204C369.767 204 380.736 218.327 380.736 236C380.736 253.673 369.767 268 356.236 268C342.705 268 331.736 253.673 331.736 236Z" fill="white"/>
<path d="M86.0293 187L64.9848 158.996L52.1526 184.639L84.0293 200L86.0293 187Z" fill="white"/>
<path d="M82.5293 213L10.529 184.639L15.5291 227.5L84.0293 231L82.5293 213Z" fill="white"/>
<path d="M45.5291 267L30.0291 243.002L84.0293 243.002L86.0293 254L45.5291 267Z" fill="white"/>
<path d="M84.2536 240.512C85.3637 240.611 86.2868 241.44 86.4895 242.554L88.4892 253.553C88.7137 254.788 87.9884 255.998 86.7938 256.381L46.293 269.381C45.2167 269.726 44.0427 269.306 43.4294 268.356L27.9291 244.358C27.4325 243.589 27.3957 242.61 27.8335 241.806C28.2713 241.002 29.114 240.502 30.0295 240.502L84.0298 240.502L84.2536 240.512ZM34.6202 245.501L46.5892 264.033L83.1763 252.29L81.9429 245.502L34.6202 245.501ZM9.00439 182.658C9.70083 182.122 10.6277 181.99 11.4453 182.312L83.4458 210.674L83.6084 210.746C84.4052 211.127 84.9464 211.904 85.0206 212.792L86.5208 230.793C86.5806 231.512 86.3268 232.221 85.8251 232.74C85.3232 233.258 84.6218 233.534 83.9014 233.498L15.4017 229.997C14.1832 229.934 13.1872 229.002 13.0457 227.79L8.04568 184.928C7.94396 184.056 8.30813 183.194 9.00439 182.658ZM17.7667 225.111L81.3003 228.357L80.1659 214.756L13.4959 188.494L17.7667 225.111ZM64.7596 156.506C65.6219 156.428 66.4639 156.802 66.984 157.494L88.0279 185.498C88.4323 186.036 88.6029 186.715 88.5006 187.381L86.5006 200.381C86.38 201.164 85.8951 201.843 85.1941 202.213C84.493 202.582 83.6583 202.597 82.9446 202.253L51.0674 186.891C50.4643 186.6 50.0027 186.079 49.7865 185.446C49.5705 184.812 49.6174 184.118 49.9169 183.519L62.7493 157.877L62.8262 157.735C63.2322 157.04 63.9511 156.58 64.7596 156.506ZM55.5239 183.488L82.0713 196.281L83.3979 187.659L65.413 163.727L55.5239 183.488Z" fill="white"/>
<path d="M168.971 8.24818C174.407 2.22463 182.448 -0.798043 190.535 0.181777C198.884 1.19343 206.165 6.33505 209.911 13.8644L251.718 97.8966C273.491 95.6128 298.26 96.7011 321.516 100.518C343.605 104.143 367.007 110.661 386.357 121.004L448.968 59.2072L449.506 58.6915C455.138 53.4541 462.883 51.0913 470.504 52.3185C478.37 53.5854 485.162 58.5258 488.789 65.6203C499.472 86.517 507.723 126.428 510.458 168.763C512.802 205.048 511.336 246.62 502.22 284.501H450.439C460.655 250.86 462.999 209.71 460.562 171.987C459.39 153.856 457.181 137.501 454.569 123.93L407.091 170.793C397.882 179.883 383.259 180.443 373.381 172.085C362.279 162.691 340.384 154.283 313.418 149.858C286.998 145.522 260.587 145.805 243.192 149.851C231.911 152.474 220.305 147.005 215.146 136.636L184.368 74.7736C169.74 103.21 161.425 136.046 158.088 168.96C153.398 215.223 158.873 258.43 167.698 284.501H115.651C107.363 251.58 103.848 208.266 108.344 163.917C113.711 110.977 130.831 53.2521 168.453 8.84096L168.971 8.24818Z" fill="white"/>
<path d="M919.816 134.5C941.036 134.5 957.853 142.098 969.272 156.12C980.065 169.374 984.433 186.414 985.758 202.701C987.971 229.883 982.143 260.655 975.242 284.5H938.607C946.152 261.742 952.899 230.428 950.874 205.54C949.836 192.787 946.65 183.767 942.133 178.221C938.243 173.443 931.991 169.5 919.817 169.5C905.527 169.5 897.972 173.741 893.413 178.633C888.369 184.046 884.832 192.592 883.216 204.627C879.921 229.172 885.56 259.511 889.724 281.905L875.766 284.5H854.609C850.638 263.162 844.585 229.33 848.527 199.97C850.651 184.147 855.905 167.543 867.807 154.771C880.194 141.479 897.742 134.5 919.816 134.5Z" fill="white"/>
<path d="M580.599 138.497C602.697 130.912 623.842 134.915 640.153 143.796C655.963 152.405 668.795 166.461 673.804 181.58C676.634 190.123 672.523 199.42 664.3 203.075L578.79 241.082C583.1 243.211 588.619 245.135 595.553 246.428C613.6 249.794 637.849 247.869 664.029 235.291V273.264C636.889 283.259 610.867 284.887 589.136 280.834C563.869 276.122 539.833 262.465 532.647 240.487C526.56 221.868 524.654 201.049 531.966 181.927C539.537 162.128 555.907 146.973 580.599 138.497ZM623.416 174.534C614.323 169.583 603.366 167.688 591.963 171.602C575.362 177.3 567.92 185.896 564.657 194.428C562.91 198.996 562.09 204.274 562.26 210.128L630.868 179.632C628.71 177.805 626.222 176.063 623.416 174.534Z" fill="white"/>
<path d="M795.529 206.424C795.529 191.881 790.798 183.033 785.137 177.736C779.239 172.219 770.652 169 760.529 169C744.243 169 725.529 184.195 725.529 212.186C725.53 235.692 744.525 250 763.29 250C777.958 250 795.529 236.728 795.529 206.424ZM830.529 206.424C830.529 250.816 802.144 285 763.29 285C728.534 285 690.53 258.2 690.529 212.186C690.529 168.115 721.816 134 760.529 134C777.907 134 795.569 139.569 809.047 152.177C822.76 165.005 830.529 183.619 830.529 206.424Z" fill="white"/>
</svg>
